<?xml version="1.0" encoding="iso-8859-1"?>
<!-- Uploaded to: SVG Repo, www.svgrepo.com, Generator: SVG Repo Mixer Tools -->
<svg fill="#000000" height="800px" width="800px" version="1.1" id="Layer_1" xmlns="http://www.w3.org/2000/svg" xmlns:xlink="http://www.w3.org/1999/xlink" 
	 viewBox="0 0 511.999 511.999" xml:space="preserve">
<g>
	<g>
		<path d="M374.588,43.842c-2.692,0-4.281,1.49-4.281,4.809v12.745c0,3.318,1.589,4.809,4.281,4.809c2.695,0,4.328-1.49,4.328-4.809
			V48.651C378.917,45.333,377.282,43.842,374.588,43.842z"/>
	</g>
</g>
<g>
	<g>
		<path d="M282.939,43.842c-2.692,0-4.281,1.49-4.281,4.809v12.745c0,3.318,1.589,4.809,4.281,4.809c2.695,0,4.328-1.49,4.328-4.809
			V48.651C287.268,45.333,285.633,43.842,282.939,43.842z"/>
	</g>
</g>
<g>
	<g>
		<path d="M310.299,43.842c-2.692,0-4.281,1.49-4.281,4.809v12.745c0,3.318,1.589,4.809,4.281,4.809c2.695,0,4.328-1.49,4.328-4.809
			V48.651C314.627,45.333,312.993,43.842,310.299,43.842z"/>
	</g>
</g>
<g>
	<g>
		<path d="M337.661,43.842c-2.695,0-4.281,1.49-4.281,4.809v12.745c0,3.318,1.587,4.809,4.281,4.809c2.692,0,4.326-1.49,4.326-4.809
			V48.651C341.987,45.333,340.353,43.842,337.661,43.842z"/>
	</g>
</g>
<g>
	<g>
		<path d="M462.855,45.02c0,1.858,1.667,3.013,4.102,4.039v-7.628C464.072,42.008,462.855,43.482,462.855,45.02z"/>
	</g>
</g>
<g>
	<g>
		<path d="M493.499,7.162H206.673c-0.321,0-0.633,0.032-0.949,0.048c5.871,9.129,9.294,19.977,9.294,31.613
			c0,14.825-5.542,28.371-14.65,38.706h10.499c35.67,0,64.865,28.551,65.317,63.747l0.004,0.063v0.482v0.042v0.102v20.79l4.513-3.83
			c2.264-1.922,5.382-2.492,8.18-1.494l30.791,10.978l51.391-37.815c1.731-1.273,3.885-1.82,6.019-1.549l29.436,3.869l32.571-29.711
			c3.397-3.098,8.662-2.857,11.76,0.539s2.856,8.661-0.539,11.76l-35.429,32.319c-1.811,1.653-4.257,2.427-6.694,2.103
			l-29.952-3.937l-52.256,38.451c-2.229,1.639-5.125,2.064-7.729,1.135l-30.436-10.851l-11.625,9.865v52.982h217.309
			c10.218,0,18.501-8.283,18.501-18.501V25.664C512,15.445,503.716,7.162,493.499,7.162z M257.262,70.15
			c0,1.539-1.874,2.308-3.752,2.308c-1.875,0-3.75-0.769-3.75-2.308v-24.48l-1.396,0.866c-0.432,0.289-0.865,0.385-1.201,0.385
			c-1.396,0-2.358-1.492-2.358-2.982c0-1.01,0.434-1.972,1.396-2.549l6.349-3.848c0.384-0.241,0.865-0.337,1.394-0.337
			c1.539,0,3.318,0.913,3.318,2.357V70.15z M264.521,72.747c-2.115,0-3.702-1.731-3.702-3.703c0-2.019,1.587-3.703,3.702-3.703
			c1.972,0,3.655,1.685,3.655,3.703C268.176,71.015,266.493,72.747,264.521,72.747z M294.77,61.396
			c0,8.271-5.194,11.35-11.831,11.35s-11.783-3.078-11.783-11.35V48.651c0-8.271,5.146-11.35,11.783-11.35
			s11.831,3.078,11.831,11.35V61.396z M322.13,61.396c0,8.271-5.194,11.35-11.831,11.35c-6.637,0-11.783-3.078-11.783-11.35V48.651
			c0-8.271,5.146-11.35,11.783-11.35c6.637,0,11.831,3.078,11.831,11.35V61.396z M349.491,61.396c0,8.271-5.196,11.35-11.831,11.35
			c-6.637,0-11.783-3.078-11.783-11.35V48.651c0-8.271,5.146-11.35,11.783-11.35c6.636,0,11.831,3.078,11.831,11.35V61.396z
			 M356.17,72.747c-2.115,0-3.702-1.731-3.702-3.703c0-2.019,1.587-3.703,3.702-3.703c1.972,0,3.655,1.685,3.655,3.703
			C359.825,71.015,358.142,72.747,356.17,72.747z M386.419,61.396c0,8.271-5.194,11.35-11.831,11.35
			c-6.637,0-11.783-3.078-11.783-11.35V48.651c0-8.271,5.146-11.35,11.783-11.35c6.637,0,11.831,3.078,11.831,11.35V61.396z
			 M413.779,61.396c0,8.271-5.194,11.35-11.831,11.35c-6.637,0-11.783-3.078-11.783-11.35V48.651c0-8.271,5.146-11.35,11.783-11.35
			c6.637,0,11.831,3.078,11.831,11.35V61.396z M441.14,61.396c0,8.271-5.196,11.35-11.831,11.35c-6.637,0-11.783-3.078-11.783-11.35
			V48.651c0-8.271,5.146-11.35,11.783-11.35c6.636,0,11.831,3.078,11.831,11.35V61.396z M471.188,78.414v1.86
			c0,0.896-1.217,1.73-2.435,1.73c-1.411,0-2.435-0.835-2.435-1.73v-1.604c-7.692-0.255-13.974-4.229-13.974-8.333
			c0-2.179,1.922-5.385,4.359-5.385c2.692,0,4.871,3.782,9.614,4.615V59.186c-5.896-2.243-12.82-5.001-12.82-13.205
			c0-8.139,6.025-12.049,12.82-13.01v-1.795c0-0.898,1.026-1.732,2.435-1.732c1.219,0,2.435,0.835,2.435,1.732v1.602
			c3.974,0.128,11.474,1.153,11.474,5.577c0,1.73-1.154,5.254-3.974,5.254c-2.115,0-3.333-2.051-7.5-2.372v9.358
			c5.833,2.181,12.628,5.194,12.628,13.847C483.814,72.389,478.687,77.197,471.188,78.414z"/>
	</g>
</g>
<g>
	<g>
		<path d="M470.546,60.916v8.59c2.18-0.514,3.91-1.732,3.91-4.039C474.457,63.352,472.853,62.006,470.546,60.916z"/>
	</g>
</g>
<g>
	<g>
		<path d="M401.948,43.842c-2.692,0-4.281,1.49-4.281,4.809v12.745c0,3.318,1.589,4.809,4.281,4.809c2.695,0,4.328-1.49,4.328-4.809
			V48.651C406.276,45.333,404.643,43.842,401.948,43.842z"/>
	</g>
</g>
<g>
	<g>
		<path d="M429.31,43.842c-2.695,0-4.281,1.49-4.281,4.809v12.745c0,3.318,1.587,4.809,4.281,4.809c2.692,0,4.326-1.49,4.326-4.809
			V48.651C433.637,45.333,432.002,43.842,429.31,43.842z"/>
	</g>
</g>
<g>
	<g>
		<path d="M255.952,146.028c-0.13-26.296-21.966-47.687-48.672-47.687h-22.193l-23.618,60.572l4.934-24.854
			c0.365-1.837,0.07-3.743-0.832-5.384l-7.779-14.148l6.89-12.531c1.029-1.872-0.334-4.157-2.458-4.157h-18.911
			c-2.129,0-3.485,2.288-2.458,4.157l6.89,12.531l-7.75,14.096c-0.92,1.672-1.208,3.619-0.811,5.487l5.643,24.803l-23.864-60.572
			H98.338c-26.219,0-47.658,21.392-47.79,47.789v144.406h-8.602c-5.643,0-10.219,4.576-10.219,10.219c0,16.221,0,12.694,0,29.091
			H12.24c-6.76,0-12.24,5.48-12.24,12.24v79.843c0,6.76,5.48,12.24,12.24,12.24h117.122c6.76,0,12.24-5.48,12.24-12.24v-79.843
			c0-6.76-5.48-12.24-12.24-12.24h-19.487v-16.6h37.734c-0.063-9.549,0-4.879,0-20.82h10.442c0,5.619,0,154.012,0,160.567h0.03
			c-0.018,9.113-0.03,20.221-0.03,33.691c0,13.422,10.881,24.303,24.303,24.303c13.422,0,24.303-10.882,24.303-24.303
			c0-194.907,0.009-338.707,0.009-340.452c0-2.405,1.934-4.363,4.339-4.392c2.405-0.029,4.386,1.881,4.443,4.286
			c0.001,0.036,0.001,0.07,0.001,0.105v148.686c0,11.185,9.067,20.252,20.252,20.252c11.185,0,20.252-9.067,20.252-20.252V146.129
			c0-0.017-0.002-0.032-0.002-0.048C255.95,146.063,255.952,146.046,255.952,146.028z M89.436,329.846H52.164
			c0-7.793,0-11.016,0-18.871h6.329c3.42,2.626,7.757,4.194,12.307,4.194c4.533,0,8.872-1.557,12.307-4.194h6.329
			C89.436,318.846,89.436,322.025,89.436,329.846z M99.043,290.535h-7.99V146.231c0.037-2.291,1.912-4.123,4.203-4.105
			c2.291,0.019,4.135,1.88,4.136,4.171C99.402,216.416,99.542,284.201,99.043,290.535z"/>
	</g>
</g>
<g>
	<g>
		<path d="M129.361,450.817H98.952v35.867c0,13.422,10.881,24.303,24.303,24.303c13.422,0,24.303-10.882,24.303-24.303v-42.34
			C142.586,448.387,136.253,450.817,129.361,450.817z"/>
	</g>
</g>
<g>
	<g>
		<circle cx="152.811" cy="42.987" r="41.975"/>
	</g>
</g>
</svg>