<!DOCTYPE svg PUBLIC "-//W3C//DTD SVG 1.1//EN" "http://www.w3.org/Graphics/SVG/1.1/DTD/svg11.dtd">
<!-- Uploaded to: SVG Repo, www.svgrepo.com, Transformed by: SVG Repo Mixer Tools -->
<svg version="1.1" id="Layer_1" xmlns="http://www.w3.org/2000/svg" xmlns:xlink="http://www.w3.org/1999/xlink" viewBox="0 0 508 508" xml:space="preserve" width="800px" height="800px" fill="#000000">
<g id="SVGRepo_bgCarrier" stroke-width="0"/>
<g id="SVGRepo_tracerCarrier" stroke-linecap="round" stroke-linejoin="round"/>
<g id="SVGRepo_iconCarrier"> <circle style="fill:#ffffff;" cx="254" cy="254" r="254"/> <polygon style="fill:#FFFFFF;" points="121.2,83.2 121.2,424.4 330.4,424.4 330.4,368.4 386.8,368.4 386.8,83.2 "/> <polygon style="fill:#355b9c;" points="330.4,424.4 386.8,368.4 330.4,368.4 "/> <rect x="152.8" y="111.6" style="fill:#FF7058;" width="39.6" height="39.6"/> <rect x="152.8" y="166.8" style="fill:#ffffff;" width="39.6" height="39.6"/> <rect x="152.8" y="221.6" style="fill:#324A5E;" width="39.6" height="39.6"/> <rect x="152.8" y="276.8" style="fill:#84DBFF;" width="39.6" height="39.6"/> <g> <rect x="202.8" y="111.6" style="fill:#355b9c;" width="152.4" height="8.8"/> <rect x="202.8" y="129.6" style="fill:#355b9c;" width="92.4" height="8.8"/> <rect x="202.8" y="166.8" style="fill:#355b9c;" width="152.4" height="8.8"/> <rect x="202.8" y="184.8" style="fill:#355b9c;" width="92.4" height="8.8"/> <rect x="202.8" y="221.6" style="fill:#355b9c;" width="152.4" height="8.8"/> <rect x="202.8" y="240" style="fill:#355b9c;" width="92.4" height="8.8"/> <rect x="202.8" y="276.8" style="fill:#355b9c;" width="152.4" height="8.8"/> <rect x="202.8" y="294.8" style="fill:#355b9c;" width="92.4" height="8.8"/> </g> </g>
</svg>